<svg id="Capa_1" data-name="Capa 1" xmlns="http://www.w3.org/2000/svg" viewBox="0 0 216.91 43.94"><defs><style>.cls-1{fill:#fedc0a;}.cls-2{fill:#1758a4;}.cls-3{fill:#8eba23;}.cls-4{fill:#d2ba5d;}.cls-5{fill:#d1be49;}.cls-6{fill:#a19771;}.cls-7{fill:#0d0c0d;}.cls-8{fill:#fbbc26;}.cls-9{fill:#fbbc28;}.cls-10{fill:#ebbf26;}.cls-11{fill:#fefefe;}.cls-12{fill:#1859a4;}.cls-13{fill:#8fba24;}.cls-14{fill:#fff;}.cls-15{fill:#b9d075;}.cls-16{fill:#afca61;}.cls-17{fill:#99a7d4;}.cls-18{fill:#607dbd;}.cls-19{fill:#5b7abb;}.cls-20{fill:#cedd9e;}.cls-21{fill:#e5edcd;}.cls-22{fill:#e7eed2;}.cls-23{fill:#96a5d3;}.cls-24{fill:#fedc0e;}.cls-25{fill:#d5c37c;}.cls-26{fill:#6b7b4c;}.cls-27{fill:#fbbc2a;}.cls-28{fill:#0e0d0e;}.cls-29{fill:none;}</style></defs><title>Logo vectorial</title><path class="cls-1" d="M46.13,169.27a3.65,3.65,0,0,0-.23.92,15.54,15.54,0,0,0-.16,1.92,5.86,5.86,0,0,0,.5,2.37,10.09,10.09,0,0,0,1.35,2.19c.48.59,1,1.16,1.5,1.72l-.06.06c-.11,0-.2-.06-.28-.12a56,56,0,0,0-5.94-3.57c-.54-.28-1.07-.54-1.61-.88-.05,0-.11-.08-.17-.11h0l.14.09a11.4,11.4,0,0,1,2,1.49c.08.08.25.17.17.36a.41.41,0,0,1-.37-.08c-.84-.45-1.69-.87-2.56-1.3a.11.11,0,0,0-.14,0c.42.28.82.56,1.21.84a16.72,16.72,0,0,1,3.63,3.69,14,14,0,0,1,1.66,3,12.14,12.14,0,0,1,.79,3.3,13.62,13.62,0,0,1-.87,6,9.83,9.83,0,0,1-.62,1.21.85.85,0,0,0-.11.26A4,4,0,0,1,44.47,194a5.32,5.32,0,0,1-3.55.53c-.87-.11-1.72-.36-2.56-.47a5.11,5.11,0,0,0-4.54,1.38c-.33.33-.64.7-1,1.07a.83.83,0,0,1-.2.22,4.54,4.54,0,0,0-.82,1.18,13,13,0,0,0-1.07,2.76.32.32,0,0,1-.17.26.37.37,0,0,1-.28-.09,14.13,14.13,0,0,1-2.73-2.45,15.55,15.55,0,0,1-2.28-3.6,20.11,20.11,0,0,1-1.52-5.44,3.21,3.21,0,0,1-.06-.76c.09-.34.06-.7.12-1.07a35.6,35.6,0,0,1,.78-3.83,28.82,28.82,0,0,1,1.55-4.22,1.43,1.43,0,0,1,.26-.45,1.34,1.34,0,0,0,.25-.37c.45-.59.79-1.26,1.21-1.86a37.11,37.11,0,0,1,2.34-2.9c.75-.85,1.55-1.67,2.39-2.45a25.32,25.32,0,0,1,4.62-3.35,18.86,18.86,0,0,1,4-1.57,12.83,12.83,0,0,1,4.14-.37,11.43,11.43,0,0,1,3.07.59c.08,0,.22.06.25.17s-.14.17-.22.23a7.88,7.88,0,0,0-1.33.81,2.82,2.82,0,0,0-.84,1C46.27,169.12,46.24,169.24,46.13,169.27Z" transform="translate(-23.59 -159.77)"/><path class="cls-2" d="M41.2,173.83c.82.36,1.61.79,2.37,1.21s1.72,1,2.53,1.46,1.83,1.16,2.73,1.78a.56.56,0,0,0,.2.11s.08,0,.11.06h0l.06.05h0s.06,0,.08.06a35.57,35.57,0,0,1,2.74,3,17.11,17.11,0,0,1,1.29,1.86,9,9,0,0,1,1.1,2.93,12.12,12.12,0,0,1,.14,3,15.17,15.17,0,0,1-1,4.2A14.2,14.2,0,0,1,52.44,196s0,.08-.06.11a1.35,1.35,0,0,1-.22.45,14.51,14.51,0,0,1-4.48,4.71,14.32,14.32,0,0,1-5.89,2.31,15.5,15.5,0,0,1-3.91.08,16.85,16.85,0,0,1-6.51-2.11c-.14-.09-.33-.14-.39-.34a1,1,0,0,1,.06-.42,11.21,11.21,0,0,1,1.52-3.86,2.43,2.43,0,0,1,.14-.2c.19-.25.36-.53.59-.79a6,6,0,0,1,1.86-1.49A5.16,5.16,0,0,1,38,193.9a22.5,22.5,0,0,1,2.45.46,7.92,7.92,0,0,0,2.17.16,5,5,0,0,0,3.35-1.77s.09-.06.09-.11a12.46,12.46,0,0,0,1.12-2.14,13,13,0,0,0,.82-3.41,14.33,14.33,0,0,0,.11-1.6,11.67,11.67,0,0,0-.93-4.51,14,14,0,0,0-2.9-4.39,6.81,6.81,0,0,0-.59-.62.34.34,0,0,1-.17-.26,16.61,16.61,0,0,0-1.43-1.21c-.28-.22-.57-.42-.85-.62-.11,0-.22-.14-.34-.19Z" transform="translate(-23.59 -159.77)"/><path class="cls-3" d="M26.53,179.07a13.27,13.27,0,0,0-.73,1.63c-.09.2-.14.36-.23.56,0,0-.39,1-.7,2.06a40.54,40.54,0,0,0-1.1,5.69,24.63,24.63,0,0,1-.11-4.93,30.44,30.44,0,0,1,.62-4.25,31,31,0,0,1,2.08-6.23c.44-.89.92-1.77,1.44-2.62a.32.32,0,0,1,.14-.14c.22-.31.42-.65.65-1a15.47,15.47,0,0,1,1.32-1.78A29,29,0,0,1,32,165.77c.54-.53,1.07-1.07,1.67-1.57a19.3,19.3,0,0,1,2.5-1.92A14.79,14.79,0,0,1,41.4,160a9.82,9.82,0,0,1,3-.2,11.21,11.21,0,0,1,4.45,1.33A13.12,13.12,0,0,1,51.48,163,16.28,16.28,0,0,1,54,165.8a18,18,0,0,1,1.24,2c.17.31.31.62.48.9,0,.06,0,.06,0,.06A6.92,6.92,0,0,0,54,167.29c-.25-.14-.5-.27-.76-.39-3.1-1.38-4.65-2.11-5.94-2.31a14,14,0,0,0-7.44,1.1A21.34,21.34,0,0,0,34.53,169,34.2,34.2,0,0,0,30,173.8a34.92,34.92,0,0,0-2.9,4.31c-.09.17-.2.31-.29.48A1.83,1.83,0,0,1,26.53,179.07Z" transform="translate(-23.59 -159.77)"/><path class="cls-4" d="M49.11,178.45s-.08,0-.11-.06h.06S49.14,178.42,49.11,178.45Z" transform="translate(-23.59 -159.77)"/><path class="cls-5" d="M49.17,178.5s-.06,0-.06-.05S49.17,178.45,49.17,178.5Z" transform="translate(-23.59 -159.77)"/><path class="cls-6" d="M49.23,178.56s-.06,0-.09-.06S49.23,178.53,49.23,178.56Z" transform="translate(-23.59 -159.77)"/><path class="cls-7" d="M46.83,187a4.11,4.11,0,1,1-4.11-4.12h0A4.09,4.09,0,0,1,46.83,187Z" transform="translate(-23.59 -159.77)"/><path class="cls-8" d="M53.45,167a6.63,6.63,0,0,0-1.38-.48,6.16,6.16,0,0,0-3,.26c-.11,0-.23.08-.34.11a9.48,9.48,0,0,0-1.83-.48,14.38,14.38,0,0,0-2.7-.2,12.93,12.93,0,0,0-3.27.48,15.82,15.82,0,0,0-3.1,1.21,20,20,0,0,0-2.64,1.64c-.65.47-1.27.95-1.86,1.46-.31.25-.59.53-.9.82s-.65.62-1,.95c-.56.6-1.12,1.21-1.66,1.83s-1.07,1.3-1.58,2-.87,1.26-1.29,1.91a.76.76,0,0,1-.17.23s0,0,0-.06c.25-.51.54-1,.82-1.49a29.94,29.94,0,0,1,2.05-3c.54-.68,1.07-1.36,1.66-2a31.67,31.67,0,0,1,2.51-2.54c.53-.48,1.1-1,1.66-1.38a21.23,21.23,0,0,1,2.09-1.41,16.5,16.5,0,0,1,5.82-2.22,12.08,12.08,0,0,1,2.88-.14,13.52,13.52,0,0,1,5.88,1.74c.4.23.76.46,1.13.71A.47.47,0,0,1,53.45,167Z" transform="translate(-23.59 -159.77)"/><path class="cls-7" d="M33.23,191.09a2.54,2.54,0,1,1,2.51-2.56v0a2.5,2.5,0,0,1-2.46,2.54Z" transform="translate(-23.59 -159.77)"/><path class="cls-8" d="M43.43,175.69a6.88,6.88,0,0,1,.62.59,11.86,11.86,0,0,1,1.09,1.26,16.06,16.06,0,0,1,1.69,2.65,11.62,11.62,0,0,1,.93,2.59,12,12,0,0,1,.26,4.14,16.81,16.81,0,0,1-.68,3.13,7.59,7.59,0,0,1-.79,1.71,4.31,4.31,0,0,1-.62.85,1.76,1.76,0,0,1,.26-.51,7.27,7.27,0,0,0,.53-1.21,10.36,10.36,0,0,0,.59-2.25,11.77,11.77,0,0,0,.17-1.44c0-.45,0-.9,0-1.38s-.07-1-.14-1.52a11.31,11.31,0,0,0-.65-2.36,12.06,12.06,0,0,0-1.21-2.34,12.72,12.72,0,0,0-1.32-1.77,12.53,12.53,0,0,0-1-1.13c-.42-.39-.84-.76-1.29-1.13l-1.1-.81a4.41,4.41,0,0,0-.48-.31c-.05,0-.11-.09-.17-.12a.12.12,0,0,1,0-.14c0-.05.08-.08.11-.05l.17.08c.53.25,1.07.51,1.6.79.37.2.76.37,1.1.59A1.18,1.18,0,0,0,43.43,175.69Z" transform="translate(-23.59 -159.77)"/><path class="cls-9" d="M31,201.14a1.24,1.24,0,0,1-.34-.22,10.42,10.42,0,0,0,.31-1c.12-.39.29-.76.43-1.12a8.45,8.45,0,0,1,1.09-1.89c.06-.08.09-.17.2-.17a4.76,4.76,0,0,1-.34.57A13.14,13.14,0,0,0,31,201C31,201,31,201.09,31,201.14Z" transform="translate(-23.59 -159.77)"/><path class="cls-10" d="M26.73,178.67v.06a.63.63,0,0,1-.2.33A3.6,3.6,0,0,1,26.73,178.67Z" transform="translate(-23.59 -159.77)"/><path class="cls-11" d="M788.49,306" transform="translate(-23.59 -159.77)"/><polygon class="cls-12" points="764.9 146.21 764.9 146.21 764.9 146.21 764.9 146.21 764.9 146.21 764.9 146.21 764.9 146.21 764.9 146.21 764.9 146.21 764.9 146.21 764.9 146.21 764.9 146.21 764.9 146.21 764.9 146.21 764.9 146.21 764.9 146.21 764.9 146.21 764.9 146.21 764.9 146.21 764.9 146.21 764.9 146.21 764.9 146.21 764.9 146.21 764.9 146.21 764.9 146.21 764.9 146.21 764.9 146.21 764.9 146.21 764.9 146.21 764.9 146.21 764.9 146.21 764.9 146.21 764.9 146.21 764.9 146.21 764.9 146.21 764.9 146.21 764.9 146.21 764.9 146.21 764.9 146.21 764.9 146.21"/><polygon class="cls-13" points="764.9 146.21 764.9 146.21 764.9 146.21 764.9 146.21 764.9 146.21 764.9 146.21 764.9 146.21 764.9 146.21 764.9 146.21 764.9 146.21 764.9 146.21 764.9 146.21 764.9 146.21 764.9 146.21 764.9 146.21 764.9 146.21 764.9 146.21 764.9 146.21 764.9 146.21 764.9 146.21 764.9 146.21 764.9 146.21 764.9 146.21 764.9 146.21 764.9 146.21 764.9 146.21 764.9 146.21 764.9 146.21 764.9 146.21 764.9 146.21"/><polygon class="cls-14" points="764.9 146.21 764.9 146.21 764.9 146.21 764.9 146.21 764.9 146.21 764.9 146.21 764.9 146.21 764.9 146.21 764.9 146.21 764.9 146.21 764.9 146.21 764.9 146.21 764.9 146.21 764.9 146.21 764.9 146.21"/><path class="cls-15" d="M788.49,306" transform="translate(-23.59 -159.77)"/><path class="cls-16" d="M788.49,306" transform="translate(-23.59 -159.77)"/><polygon class="cls-17" points="764.9 146.21 764.9 146.21 764.9 146.21 764.9 146.21"/><path class="cls-18" d="M788.49,306" transform="translate(-23.59 -159.77)"/><path class="cls-19" d="M788.49,306" transform="translate(-23.59 -159.77)"/><path class="cls-20" d="M788.49,306" transform="translate(-23.59 -159.77)"/><polygon class="cls-21" points="764.9 146.21 764.9 146.21 764.9 146.21 764.9 146.21"/><path class="cls-22" d="M788.49,306" transform="translate(-23.59 -159.77)"/><path class="cls-23" d="M788.49,306" transform="translate(-23.59 -159.77)"/><polygon class="cls-24" points="764.9 146.21 764.9 146.21 764.9 146.21 764.9 146.21 764.9 146.21 764.9 146.21 764.9 146.21 764.9 146.21 764.9 146.21 764.9 146.21 764.9 146.21 764.9 146.21 764.9 146.21 764.9 146.21 764.9 146.21 764.9 146.21 764.9 146.21 764.9 146.21 764.9 146.21 764.9 146.21 764.9 146.21 764.9 146.21 764.9 146.21 764.9 146.21 764.9 146.21 764.9 146.21 764.9 146.21 764.9 146.21 764.9 146.21 764.9 146.21 764.9 146.21 764.9 146.21 764.9 146.21 764.9 146.21 764.9 146.21 764.9 146.21 764.9 146.21 764.9 146.21 764.9 146.21 764.9 146.21 764.9 146.21 764.9 146.21 764.9 146.21 764.9 146.21 764.9 146.21 764.9 146.21 764.9 146.21 764.9 146.21 764.9 146.21"/><polygon class="cls-9" points="764.9 146.21 764.9 146.21 764.9 146.21 764.9 146.21 764.9 146.21 764.9 146.21 764.9 146.21 764.9 146.21 764.9 146.21 764.9 146.21 764.9 146.21 764.9 146.21 764.9 146.21 764.9 146.21 764.9 146.21 764.9 146.21 764.9 146.21 764.9 146.21 764.9 146.21 764.9 146.21 764.9 146.21"/><path class="cls-25" d="M788.49,306" transform="translate(-23.59 -159.77)"/><path class="cls-26" d="M788.49,306" transform="translate(-23.59 -159.77)"/><polygon class="cls-9" points="764.9 146.21 764.9 146.21 764.9 146.21 764.9 146.21 764.9 146.21 764.9 146.21 764.9 146.21 764.9 146.21 764.9 146.21 764.9 146.21 764.9 146.21 764.9 146.21 764.9 146.21 764.9 146.21 764.9 146.21 764.9 146.21 764.9 146.21 764.9 146.21 764.9 146.21"/><polygon class="cls-27" points="764.9 146.21 764.9 146.21 764.9 146.21 764.9 146.21 764.9 146.21 764.9 146.21"/><polygon class="cls-28" points="764.9 146.21 764.9 146.21 764.9 146.21 764.9 146.21"/><path class="cls-28" d="M788.49,306" transform="translate(-23.59 -159.77)"/><rect class="cls-29" x="44.29" y="5.61" width="172.63" height="31.88"/></svg>